<svg xmlns="http://www.w3.org/2000/svg" xmlns:xlink="http://www.w3.org/1999/xlink" width="1260" zoomAndPan="magnify" viewBox="0 0 944.88 225" height="300" preserveAspectRatio="xMidYMid meet" version="1.0"><defs><g/><clipPath id="id1"><path d="M 22.015625 26.191406 L 195.242188 26.191406 L 195.242188 200.167969 L 22.015625 200.167969 Z M 22.015625 26.191406 " clip-rule="nonzero"/></clipPath><clipPath id="id2"><path d="M 0.75 5.195312 L 216.722656 5.195312 L 216.722656 221.167969 L 0.75 221.167969 Z M 0.75 5.195312 " clip-rule="nonzero"/></clipPath><clipPath id="id3"><path d="M 917 67 L 944.761719 67 L 944.761719 109 L 917 109 Z M 917 67 " clip-rule="nonzero"/></clipPath></defs><g clip-path="url(#id1)"><path fill="#ffffff" d="M 22.015625 26.191406 L 195.242188 26.191406 L 195.242188 200.167969 L 22.015625 200.167969 L 22.015625 26.191406 " fill-opacity="1" fill-rule="nonzero"/></g><g clip-path="url(#id2)"><path fill="#0099cc" d="M 4.757812 5.316406 C 2.824219 5.636719 1.191406 7.3125 0.867188 9.300781 C 0.707031 10.25 0.707031 215.929688 0.859375 217 C 1.160156 219.074219 2.78125 220.714844 4.851562 221.050781 C 5.835938 221.210938 211.636719 221.210938 212.617188 221.050781 C 214.660156 220.726562 216.28125 219.105469 216.605469 217.066406 C 216.765625 216.082031 216.765625 10.28125 216.605469 9.300781 C 216.269531 7.238281 214.617188 5.605469 212.554688 5.304688 C 211.59375 5.175781 5.585938 5.175781 4.757812 5.316406 Z M 213.320312 7.011719 C 214.054688 7.367188 214.585938 7.90625 214.953125 8.695312 L 215.210938 9.246094 L 215.210938 217.117188 L 214.953125 217.667969 C 214.585938 218.457031 214.054688 218.996094 213.320312 219.355469 L 212.671875 219.65625 L 4.800781 219.65625 L 4.152344 219.355469 C 3.417969 218.996094 2.886719 218.457031 2.519531 217.667969 L 2.261719 217.117188 L 2.261719 9.246094 L 2.519531 8.695312 C 2.886719 7.90625 3.417969 7.367188 4.152344 7.011719 L 4.800781 6.707031 L 212.671875 6.707031 Z M 213.320312 7.011719 " fill-opacity="1" fill-rule="nonzero"/></g><path fill="#0099cc" d="M 11.65625 113.183594 L 11.65625 210.371094 L 206.03125 210.371094 L 206.03125 15.996094 L 11.65625 15.996094 Z M 183.03125 35.605469 C 184.152344 35.992188 185.375 36.976562 185.914062 37.914062 C 186.507812 38.964844 186.484375 38.660156 186.484375 47.851562 C 186.484375 57.039062 186.507812 56.738281 185.914062 57.785156 C 185.589844 58.359375 184.660156 59.273438 184.054688 59.621094 C 182.847656 60.3125 183.992188 60.269531 167.78125 60.269531 L 153.011719 60.269531 L 153.011719 146.441406 L 167.046875 146.441406 L 167.046875 152.058594 L 159.414062 152.058594 C 151.195312 152.058594 151.335938 152.066406 150.214844 151.496094 C 149.1875 150.976562 148.25 149.875 147.816406 148.6875 C 147.609375 148.125 147.609375 147.371094 147.609375 103.105469 L 147.609375 58.097656 L 147.890625 57.535156 C 148.507812 56.339844 149.867188 55.246094 151.238281 54.878906 C 151.554688 54.792969 156 54.761719 166.390625 54.761719 L 181.085938 54.761719 L 181.085938 41.046875 L 75.261719 41.046875 L 75.261719 127.003906 L 129.902344 127.003906 L 130.625 127.273438 C 132.113281 127.835938 133.335938 129.1875 133.746094 130.71875 C 133.863281 131.160156 133.898438 132.878906 133.898438 139.542969 C 133.898438 147.664062 133.898438 147.824219 133.671875 148.503906 C 133.367188 149.433594 133.042969 149.953125 132.363281 150.621094 C 131.757812 151.203125 130.90625 151.710938 130.160156 151.925781 C 129.816406 152.023438 120.949219 152.058594 92.214844 152.058594 L 54.699219 152.058594 L 54.050781 151.832031 C 53.167969 151.515625 52.410156 151.019531 51.828125 150.363281 C 51.320312 149.800781 50.746094 148.761719 50.746094 148.417969 C 50.746094 148.300781 50.683594 148.148438 50.605469 148.082031 C 50.511719 147.976562 50.464844 140.40625 50.445312 111.128906 L 50.421875 74.308594 L 30.984375 74.308594 L 30.984375 68.90625 L 41.4375 68.90625 C 51.480469 68.90625 51.902344 68.917969 52.453125 69.113281 C 54.019531 69.683594 55.097656 70.796875 55.660156 72.386719 C 55.800781 72.796875 55.824219 77.09375 55.824219 109.75 L 55.824219 146.65625 L 128.171875 146.65625 L 128.171875 132.621094 L 100.992188 132.621094 C 77 132.621094 73.75 132.597656 73.339844 132.457031 C 72.519531 132.167969 72 131.851562 71.394531 131.292969 C 70.746094 130.675781 70.378906 130.113281 70.066406 129.25 C 69.859375 128.6875 69.859375 127.859375 69.859375 84.027344 C 69.859375 43.832031 69.882812 39.332031 70.035156 38.886719 C 70.585938 37.3125 71.828125 36.101562 73.480469 35.550781 C 73.695312 35.484375 92.527344 35.441406 128.171875 35.441406 C 177.1875 35.433594 182.589844 35.453125 183.03125 35.605469 Z M 52.097656 35.863281 C 53.835938 36.457031 55.089844 37.730469 55.605469 39.40625 C 55.8125 40.054688 55.824219 40.421875 55.824219 45.257812 C 55.824219 50.085938 55.8125 50.464844 55.605469 51.101562 C 55.089844 52.796875 53.75 54.136719 52.066406 54.652344 C 51.40625 54.859375 51.050781 54.871094 43.40625 54.871094 C 35.792969 54.871094 35.402344 54.859375 34.753906 54.652344 C 33.058594 54.136719 31.71875 52.796875 31.203125 51.113281 C 30.996094 50.464844 30.984375 50.097656 30.984375 45.257812 C 30.984375 40.421875 30.996094 40.054688 31.203125 39.40625 C 31.71875 37.722656 33.039062 36.402344 34.742188 35.851562 C 35.316406 35.667969 35.921875 35.660156 43.414062 35.660156 C 51.199219 35.648438 51.492188 35.660156 52.097656 35.863281 Z M 63.761719 159.765625 C 64.234375 159.929688 64.730469 160.113281 64.851562 160.1875 L 65.089844 160.316406 L 64.679688 161.34375 C 64.355469 162.144531 64.222656 162.371094 64.0625 162.347656 C 63.953125 162.347656 63.457031 162.1875 62.949219 162.003906 C 61.40625 161.441406 60.433594 161.582031 59.527344 162.476562 C 59.09375 162.921875 58.933594 163.179688 58.761719 163.730469 C 58.457031 164.714844 58.382812 165.707031 58.523438 166.753906 C 58.71875 168.210938 59.160156 168.980469 60.089844 169.476562 C 60.867188 169.898438 62.875 169.757812 64.386719 169.171875 C 64.546875 169.097656 64.570312 169.195312 64.570312 170.242188 C 64.570312 171.539062 64.613281 171.460938 63.542969 171.753906 C 62.636719 172.003906 60.886719 172.089844 60.003906 171.9375 C 58.027344 171.59375 56.75 170.480469 56.082031 168.515625 C 55.703125 167.402344 55.597656 165.199219 55.867188 163.9375 C 56.339844 161.65625 57.863281 160.039062 59.96875 159.550781 C 60.984375 159.324219 62.691406 159.421875 63.761719 159.765625 Z M 102.3125 159.765625 C 102.785156 159.929688 103.28125 160.113281 103.402344 160.1875 L 103.640625 160.316406 L 103.230469 161.34375 C 102.90625 162.144531 102.773438 162.371094 102.613281 162.347656 C 102.503906 162.347656 102.007812 162.1875 101.5 162.003906 C 99.957031 161.441406 98.984375 161.582031 98.078125 162.476562 C 97.644531 162.921875 97.484375 163.179688 97.3125 163.730469 C 97.007812 164.714844 96.933594 165.707031 97.074219 166.753906 C 97.269531 168.210938 97.710938 168.980469 98.640625 169.476562 C 99.417969 169.898438 101.425781 169.757812 102.9375 169.171875 C 103.097656 169.097656 103.121094 169.195312 103.121094 170.242188 C 103.121094 171.539062 103.164062 171.460938 102.09375 171.753906 C 101.1875 172.003906 99.4375 172.089844 98.554688 171.9375 C 96.578125 171.59375 95.300781 170.480469 94.632812 168.515625 C 94.253906 167.402344 94.148438 165.199219 94.417969 163.9375 C 94.890625 161.65625 96.414062 160.039062 98.519531 159.550781 C 99.535156 159.324219 101.242188 159.421875 102.3125 159.765625 Z M 90.582031 164.820312 C 91.621094 167.746094 92.601562 170.523438 92.765625 170.988281 L 93.078125 171.828125 L 91.597656 171.796875 L 90.121094 171.765625 L 89.699219 170.328125 L 89.265625 168.902344 L 84.925781 168.902344 L 84.492188 170.359375 L 84.0625 171.820312 L 82.636719 171.820312 C 81.847656 171.820312 81.199219 171.785156 81.199219 171.730469 C 81.199219 171.6875 82.160156 168.925781 83.328125 165.578125 L 85.464844 159.507812 L 88.714844 159.507812 Z M 114.015625 164.820312 C 115.054688 167.746094 116.035156 170.523438 116.199219 170.988281 L 116.511719 171.828125 L 113.550781 171.765625 L 113.132812 170.328125 L 112.699219 168.902344 L 108.359375 168.902344 L 107.925781 170.359375 L 107.496094 171.820312 L 106.070312 171.820312 C 105.28125 171.820312 104.632812 171.785156 104.632812 171.730469 C 104.632812 171.6875 105.59375 168.925781 106.761719 165.578125 L 108.898438 159.507812 L 112.148438 159.507812 Z M 53.015625 165.71875 L 53.015625 171.820312 L 50.316406 171.820312 L 50.316406 159.617188 L 53.015625 159.617188 Z M 75.691406 160.695312 L 75.691406 161.777344 L 72.34375 161.777344 L 72.34375 171.820312 L 69.644531 171.820312 L 69.644531 161.777344 L 66.40625 161.777344 L 66.40625 159.617188 L 75.691406 159.617188 Z M 124.15625 159.777344 C 126.1875 160.253906 127.710938 161.734375 128.226562 163.71875 C 128.476562 164.636719 128.476562 166.539062 128.238281 167.542969 C 127.859375 169.128906 126.855469 170.425781 125.429688 171.117188 C 124.242188 171.710938 123.507812 171.820312 120.699219 171.820312 L 118.238281 171.820312 L 118.238281 159.617188 L 120.863281 159.617188 C 122.785156 159.617188 123.660156 159.660156 124.15625 159.777344 Z M 138.433594 160.695312 L 138.433594 161.777344 L 134.003906 161.777344 L 134.003906 164.367188 L 138.109375 164.367188 L 138.109375 166.636719 L 134.003906 166.636719 L 134.003906 169.660156 L 138.433594 169.660156 L 138.433594 171.820312 L 131.304688 171.820312 L 131.304688 159.617188 L 138.433594 159.617188 Z M 146.25 164.152344 C 147.027344 166.644531 147.6875 168.65625 147.730469 168.613281 C 147.773438 168.558594 148.464844 166.527344 149.253906 164.097656 L 150.699219 159.671875 L 152.558594 159.636719 L 154.414062 159.617188 L 154.414062 171.820312 L 151.789062 171.820312 L 151.84375 167.207031 L 151.898438 162.597656 L 150.386719 167.207031 L 148.863281 171.820312 L 146.371094 171.820312 L 144.964844 167.238281 L 143.550781 162.652344 L 143.59375 167.238281 L 143.636719 171.820312 L 141.238281 171.820312 L 141.238281 159.617188 L 144.859375 159.617188 Z M 160.332031 162.066406 L 161.5625 164.519531 L 162.816406 162.066406 L 164.066406 159.617188 L 165.503906 159.617188 C 166.292969 159.617188 166.941406 159.636719 166.941406 159.660156 C 166.941406 159.679688 166.042969 161.34375 164.941406 163.375 L 162.945312 167.054688 L 162.945312 171.820312 L 160.246094 171.820312 L 160.246094 167.175781 L 158.292969 163.546875 C 157.222656 161.558594 156.316406 159.855469 156.28125 159.765625 C 156.238281 159.636719 156.464844 159.617188 157.675781 159.617188 L 159.113281 159.617188 Z M 119.957031 178.699219 C 120.214844 179.355469 124.394531 190.617188 124.394531 190.664062 C 124.394531 190.695312 123.898438 190.714844 123.292969 190.714844 L 122.179688 190.714844 L 121.585938 189.0625 L 120.992188 187.421875 L 118.703125 187.390625 L 116.425781 187.367188 L 116.253906 187.820312 C 116.15625 188.082031 115.886719 188.816406 115.65625 189.472656 L 115.238281 190.664062 L 114.136719 190.695312 C 113.121094 190.714844 113.035156 190.707031 113.078125 190.53125 C 113.121094 190.390625 116.824219 180.414062 117.492188 178.644531 C 117.582031 178.417969 117.644531 178.40625 118.714844 178.40625 L 119.835938 178.40625 Z M 162.394531 178.699219 C 162.652344 179.355469 166.832031 190.617188 166.832031 190.664062 C 166.832031 190.695312 166.335938 190.714844 165.730469 190.714844 L 164.617188 190.714844 L 164.023438 189.0625 L 163.429688 187.421875 L 161.140625 187.390625 L 158.863281 187.367188 L 158.691406 187.820312 C 158.59375 188.082031 158.324219 188.816406 158.097656 189.472656 L 157.675781 190.664062 L 156.574219 190.695312 C 155.558594 190.714844 155.472656 190.707031 155.515625 190.53125 C 155.558594 190.390625 159.261719 180.414062 159.933594 178.644531 C 160.019531 178.417969 160.082031 178.40625 161.152344 178.40625 L 162.277344 178.40625 Z M 52.496094 181.3125 L 52.53125 184.109375 L 57.257812 178.515625 L 58.4375 178.515625 C 59.074219 178.515625 59.601562 178.535156 59.601562 178.566406 C 59.601562 178.601562 58.585938 179.808594 57.355469 181.246094 L 55.097656 183.871094 L 56.773438 186.289062 C 57.691406 187.628906 58.75 189.171875 59.128906 189.710938 L 59.820312 190.714844 L 57.34375 190.714844 L 55.476562 188.015625 C 54.453125 186.539062 53.585938 185.316406 53.554688 185.316406 C 53.523438 185.316406 53.273438 185.511719 52.992188 185.757812 L 52.476562 186.203125 L 52.476562 190.714844 L 50.316406 190.714844 L 50.316406 178.515625 L 52.476562 178.515625 Z M 79.148438 179.378906 L 79.148438 180.242188 L 74.289062 180.242188 L 74.289062 183.480469 L 78.824219 183.480469 L 78.824219 185.207031 L 74.289062 185.207031 L 74.289062 188.988281 L 79.148438 188.988281 L 79.148438 190.714844 L 72.128906 190.714844 L 72.128906 178.515625 L 79.148438 178.515625 Z M 98.703125 178.816406 C 99.601562 179.171875 100.109375 179.582031 100.476562 180.253906 C 100.734375 180.738281 100.800781 180.988281 100.832031 181.765625 C 100.90625 183.328125 100.398438 184.3125 99.167969 185.015625 C 98.671875 185.285156 98.605469 185.359375 98.695312 185.53125 C 98.746094 185.640625 99.460938 186.765625 100.257812 188.015625 C 101.058594 189.269531 101.769531 190.390625 101.824219 190.511719 C 101.933594 190.707031 101.890625 190.714844 100.757812 190.714844 L 99.566406 190.714844 L 98.132812 188.308594 L 96.683594 185.910156 L 95.746094 185.878906 L 94.804688 185.847656 L 94.804688 190.714844 L 92.644531 190.714844 L 92.644531 178.492188 L 95.378906 178.535156 C 97.894531 178.566406 98.144531 178.589844 98.703125 178.816406 Z M 138.972656 183.75 L 138.972656 188.988281 L 144.15625 188.988281 L 144.15625 190.714844 L 136.8125 190.714844 L 136.8125 178.515625 L 138.972656 178.515625 Z M 138.972656 183.75 " fill-opacity="1" fill-rule="nonzero"/><path fill="#0099cc" d="M 36.386719 45.257812 L 36.386719 49.46875 L 50.421875 49.46875 L 50.421875 41.046875 L 36.386719 41.046875 Z M 36.386719 45.257812 " fill-opacity="1" fill-rule="nonzero"/><path fill="#0099cc" d="M 86.351562 164.226562 C 85.949219 165.566406 85.636719 166.679688 85.660156 166.710938 C 85.679688 166.734375 86.363281 166.734375 87.160156 166.722656 L 88.628906 166.6875 L 87.875 164.257812 C 87.460938 162.929688 87.117188 161.828125 87.105469 161.820312 C 87.097656 161.796875 86.75 162.886719 86.351562 164.226562 Z M 86.351562 164.226562 " fill-opacity="1" fill-rule="nonzero"/><path fill="#0099cc" d="M 109.785156 164.226562 C 109.382812 165.566406 109.070312 166.679688 109.09375 166.710938 C 109.113281 166.734375 109.792969 166.734375 110.59375 166.722656 L 112.0625 166.6875 L 111.304688 164.257812 C 110.894531 162.929688 110.550781 161.828125 110.539062 161.820312 C 110.527344 161.796875 110.183594 162.886719 109.785156 164.226562 Z M 109.785156 164.226562 " fill-opacity="1" fill-rule="nonzero"/><path fill="#0099cc" d="M 120.9375 165.71875 L 120.9375 169.691406 L 121.996094 169.625 C 123.269531 169.550781 123.910156 169.347656 124.535156 168.796875 C 125.398438 168.027344 125.832031 166.429688 125.59375 164.84375 C 125.28125 162.695312 124.371094 161.90625 122.105469 161.796875 L 120.9375 161.742188 Z M 120.9375 165.71875 " fill-opacity="1" fill-rule="nonzero"/><path fill="#0099cc" d="M 117.914062 182.929688 C 117.472656 184.257812 117.09375 185.382812 117.074219 185.4375 C 117.050781 185.488281 117.773438 185.53125 118.726562 185.53125 C 120.300781 185.53125 120.421875 185.523438 120.34375 185.339844 C 120.300781 185.242188 119.921875 184.109375 119.492188 182.832031 L 118.726562 180.511719 Z M 117.914062 182.929688 " fill-opacity="1" fill-rule="nonzero"/><path fill="#0099cc" d="M 160.355469 182.929688 C 159.910156 184.257812 159.53125 185.382812 159.511719 185.4375 C 159.488281 185.488281 160.214844 185.53125 161.164062 185.53125 C 162.738281 185.53125 162.859375 185.523438 162.785156 185.339844 C 162.738281 185.242188 162.363281 184.109375 161.929688 182.832031 L 161.164062 180.511719 Z M 160.355469 182.929688 " fill-opacity="1" fill-rule="nonzero"/><path fill="#0099cc" d="M 94.804688 182.183594 L 94.804688 184.152344 L 96.027344 184.109375 C 97 184.074219 97.332031 184.019531 97.730469 183.828125 C 98.371094 183.511719 98.695312 182.960938 98.695312 182.175781 C 98.695312 180.824219 98.003906 180.339844 96.027344 180.261719 L 94.804688 180.210938 Z M 94.804688 182.183594 " fill-opacity="1" fill-rule="nonzero"/><g fill="#000000" fill-opacity="1"><g transform="translate(223.725435, 57.157033)"><g><path d="M 5.046875 0 L 5.046875 -41.390625 L 12.28125 -41.390625 L 12.28125 0 Z M 5.046875 0 "/></g></g></g><g fill="#000000" fill-opacity="1"><g transform="translate(241.110727, 57.157033)"><g><path d="M 32.640625 0 L 23.25 0 L 10.453125 -29.984375 L 10.078125 -29.984375 C 10.546875 -27.703125 10.78125 -25.25 10.78125 -22.625 L 10.78125 0 L 3.65625 0 L 3.65625 -41.390625 L 13.109375 -41.390625 L 25.796875 -11.71875 L 26.109375 -11.71875 C 25.742188 -13.695312 25.5625 -16.054688 25.5625 -18.796875 L 25.5625 -41.390625 L 32.640625 -41.390625 Z M 32.640625 0 "/></g></g></g><g fill="#000000" fill-opacity="1"><g transform="translate(277.410311, 57.157033)"><g><path d="M 11.296875 0 L 3.65625 0 L 3.65625 -41.390625 L 22.203125 -41.390625 L 22.203125 -34.734375 L 11.296875 -34.734375 L 11.296875 -23.25 L 21.46875 -23.25 L 21.46875 -16.59375 L 11.296875 -16.59375 Z M 11.296875 0 "/></g></g></g><g fill="#000000" fill-opacity="1"><g transform="translate(301.13812, 57.157033)"><g><path d="M 32.140625 -20.75 C 32.140625 -13.894531 30.851562 -8.628906 28.28125 -4.953125 C 25.71875 -1.273438 22.046875 0.5625 17.265625 0.5625 C 12.472656 0.5625 8.789062 -1.269531 6.21875 -4.9375 C 3.65625 -8.613281 2.375 -13.90625 2.375 -20.8125 C 2.375 -27.664062 3.65625 -32.914062 6.21875 -36.5625 C 8.789062 -40.21875 12.492188 -42.046875 17.328125 -42.046875 C 22.097656 -42.046875 25.757812 -40.207031 28.3125 -36.53125 C 30.863281 -32.863281 32.140625 -27.601562 32.140625 -20.75 Z M 10.25 -20.75 C 10.25 -16.03125 10.84375 -12.429688 12.03125 -9.953125 C 13.21875 -7.484375 14.960938 -6.25 17.265625 -6.25 C 21.910156 -6.25 24.234375 -11.082031 24.234375 -20.75 C 24.234375 -30.414062 21.929688 -35.25 17.328125 -35.25 C 14.984375 -35.25 13.21875 -34.015625 12.03125 -31.546875 C 10.84375 -29.085938 10.25 -25.488281 10.25 -20.75 Z M 10.25 -20.75 "/></g></g></g><g fill="#000000" fill-opacity="1"><g transform="translate(335.653876, 57.157033)"><g><path d="M 11.359375 -16.109375 L 11.359375 0 L 3.65625 0 L 3.65625 -41.390625 L 13.734375 -41.390625 C 17.992188 -41.390625 21.140625 -40.378906 23.171875 -38.359375 C 25.203125 -36.335938 26.21875 -33.253906 26.21875 -29.109375 C 26.21875 -23.878906 24.453125 -20.222656 20.921875 -18.140625 L 28.875 0 L 20.640625 0 L 14.09375 -16.109375 Z M 11.359375 -22.734375 L 13.328125 -22.734375 C 15.140625 -22.734375 16.441406 -23.25 17.234375 -24.28125 C 18.035156 -25.3125 18.4375 -26.84375 18.4375 -28.875 C 18.4375 -30.988281 18.015625 -32.492188 17.171875 -33.390625 C 16.328125 -34.285156 15.03125 -34.734375 13.28125 -34.734375 L 11.359375 -34.734375 Z M 11.359375 -22.734375 "/></g></g></g><g fill="#000000" fill-opacity="1"><g transform="translate(364.64824, 57.157033)"><g><path d="M 18.4375 0 L 10.5625 -35.25 L 10.25 -35.25 C 10.601562 -32.53125 10.78125 -30.039062 10.78125 -27.78125 L 10.78125 0 L 3.65625 0 L 3.65625 -41.390625 L 15.484375 -41.390625 L 22.5625 -8.859375 L 22.796875 -8.859375 L 29.8125 -41.390625 L 41.8125 -41.390625 L 41.8125 0 L 34.515625 0 L 34.515625 -28.0625 C 34.515625 -30.382812 34.644531 -32.757812 34.90625 -35.1875 L 34.6875 -35.1875 L 26.84375 0 Z M 18.4375 0 "/></g></g></g><g fill="#000000" fill-opacity="1"><g transform="translate(410.121822, 57.157033)"><g><path d="M 23.25 0 L 20.859375 -10.453125 L 10.078125 -10.453125 L 7.703125 0 L 0 0 L 10.25 -41.5625 L 20.703125 -41.5625 L 30.96875 0 Z M 19.421875 -17.265625 L 17.21875 -26.890625 C 17.082031 -27.484375 16.78125 -28.953125 16.3125 -31.296875 C 15.851562 -33.648438 15.578125 -35.222656 15.484375 -36.015625 C 15.242188 -34.390625 14.929688 -32.597656 14.546875 -30.640625 C 14.171875 -28.691406 13.191406 -24.234375 11.609375 -17.265625 Z M 19.421875 -17.265625 "/></g></g></g><g fill="#000000" fill-opacity="1"><g transform="translate(441.09821, 57.157033)"><g><path d="M 16.359375 0 L 8.6875 0 L 8.6875 -34.625 L 0.765625 -34.625 L 0.765625 -41.390625 L 24.296875 -41.390625 L 24.296875 -34.625 L 16.359375 -34.625 Z M 16.359375 0 "/></g></g></g><g fill="#000000" fill-opacity="1"><g transform="translate(466.156809, 57.157033)"><g><path d="M 5.046875 0 L 5.046875 -41.390625 L 12.28125 -41.390625 L 12.28125 0 Z M 5.046875 0 "/></g></g></g><g fill="#000000" fill-opacity="1"><g transform="translate(483.542113, 57.157033)"><g><path d="M 32.140625 -20.75 C 32.140625 -13.894531 30.851562 -8.628906 28.28125 -4.953125 C 25.71875 -1.273438 22.046875 0.5625 17.265625 0.5625 C 12.472656 0.5625 8.789062 -1.269531 6.21875 -4.9375 C 3.65625 -8.613281 2.375 -13.90625 2.375 -20.8125 C 2.375 -27.664062 3.65625 -32.914062 6.21875 -36.5625 C 8.789062 -40.21875 12.492188 -42.046875 17.328125 -42.046875 C 22.097656 -42.046875 25.757812 -40.207031 28.3125 -36.53125 C 30.863281 -32.863281 32.140625 -27.601562 32.140625 -20.75 Z M 10.25 -20.75 C 10.25 -16.03125 10.84375 -12.429688 12.03125 -9.953125 C 13.21875 -7.484375 14.960938 -6.25 17.265625 -6.25 C 21.910156 -6.25 24.234375 -11.082031 24.234375 -20.75 C 24.234375 -30.414062 21.929688 -35.25 17.328125 -35.25 C 14.984375 -35.25 13.21875 -34.015625 12.03125 -31.546875 C 10.84375 -29.085938 10.25 -25.488281 10.25 -20.75 Z M 10.25 -20.75 "/></g></g></g><g fill="#000000" fill-opacity="1"><g transform="translate(518.057869, 57.157033)"><g><path d="M 32.640625 0 L 23.25 0 L 10.453125 -29.984375 L 10.078125 -29.984375 C 10.546875 -27.703125 10.78125 -25.25 10.78125 -22.625 L 10.78125 0 L 3.65625 0 L 3.65625 -41.390625 L 13.109375 -41.390625 L 25.796875 -11.71875 L 26.109375 -11.71875 C 25.742188 -13.695312 25.5625 -16.054688 25.5625 -18.796875 L 25.5625 -41.390625 L 32.640625 -41.390625 Z M 32.640625 0 "/></g></g></g><g fill="#000000" fill-opacity="1"><g transform="translate(554.357442, 57.157033)"><g/></g></g><g fill="#000000" fill-opacity="1"><g transform="translate(568.684723, 57.157033)"><g><path d="M 24.6875 0 L 22.671875 -2.890625 C 20.109375 -0.585938 16.921875 0.5625 13.109375 0.5625 C 9.484375 0.5625 6.671875 -0.460938 4.671875 -2.515625 C 2.671875 -4.578125 1.671875 -7.425781 1.671875 -11.0625 C 1.671875 -15.75 3.972656 -19.675781 8.578125 -22.84375 C 7.128906 -25.09375 6.164062 -26.867188 5.6875 -28.171875 C 5.21875 -29.472656 4.984375 -30.851562 4.984375 -32.3125 C 4.984375 -35.25 5.894531 -37.59375 7.71875 -39.34375 C 9.550781 -41.101562 11.960938 -41.984375 14.953125 -41.984375 C 17.816406 -41.984375 20.097656 -41.164062 21.796875 -39.53125 C 23.492188 -37.90625 24.34375 -35.644531 24.34375 -32.75 C 24.34375 -30.769531 23.820312 -28.890625 22.78125 -27.109375 C 21.75 -25.328125 20.015625 -23.519531 17.578125 -21.6875 L 23.359375 -13.5625 C 24.003906 -14.726562 24.503906 -16.03125 24.859375 -17.46875 C 25.210938 -18.90625 25.523438 -20.332031 25.796875 -21.75 L 32.359375 -21.75 C 31.640625 -16.457031 30.070312 -11.753906 27.65625 -7.640625 L 33.15625 0 Z M 9.28125 -11.78125 C 9.28125 -10.019531 9.695312 -8.640625 10.53125 -7.640625 C 11.363281 -6.640625 12.5 -6.140625 13.9375 -6.140625 C 15.820312 -6.140625 17.476562 -6.835938 18.90625 -8.234375 L 12.125 -18.03125 C 10.226562 -16.332031 9.28125 -14.25 9.28125 -11.78125 Z M 17.390625 -32.078125 C 17.390625 -33.304688 17.140625 -34.195312 16.640625 -34.75 C 16.140625 -35.3125 15.535156 -35.59375 14.828125 -35.59375 C 13.960938 -35.59375 13.273438 -35.285156 12.765625 -34.671875 C 12.253906 -34.054688 12 -33.164062 12 -32 C 12 -30.957031 12.21875 -29.992188 12.65625 -29.109375 C 13.101562 -28.234375 13.660156 -27.34375 14.328125 -26.4375 C 15.472656 -27.332031 16.269531 -28.191406 16.71875 -29.015625 C 17.164062 -29.847656 17.390625 -30.867188 17.390625 -32.078125 Z M 17.390625 -32.078125 "/></g></g></g><g fill="#000000" fill-opacity="1"><g transform="translate(602.368742, 57.157033)"><g/></g></g><g fill="#000000" fill-opacity="1"><g transform="translate(223.725435, 108.900459)"><g><path d="M 17.390625 -35.25 C 15.179688 -35.25 13.4375 -33.953125 12.15625 -31.359375 C 10.882812 -28.773438 10.25 -25.179688 10.25 -20.578125 C 10.25 -10.992188 12.75 -6.203125 17.75 -6.203125 C 19.9375 -6.203125 22.226562 -6.898438 24.625 -8.296875 L 24.625 -1.4375 C 22.613281 -0.101562 20.03125 0.5625 16.875 0.5625 C 12.207031 0.5625 8.625 -1.289062 6.125 -5 C 3.625 -8.707031 2.375 -13.921875 2.375 -20.640625 C 2.375 -27.359375 3.660156 -32.59375 6.234375 -36.34375 C 8.816406 -40.101562 12.398438 -41.984375 16.984375 -41.984375 C 18.492188 -41.984375 19.941406 -41.773438 21.328125 -41.359375 C 22.722656 -40.941406 24.210938 -40.21875 25.796875 -39.1875 L 23.25 -32.921875 C 22.394531 -33.515625 21.484375 -34.050781 20.515625 -34.53125 C 19.554688 -35.007812 18.515625 -35.25 17.390625 -35.25 Z M 17.390625 -35.25 "/></g></g></g><g fill="#000000" fill-opacity="1"><g transform="translate(250.567873, 108.900459)"><g><path d="M 32.140625 -20.75 C 32.140625 -13.894531 30.851562 -8.628906 28.28125 -4.953125 C 25.71875 -1.273438 22.046875 0.5625 17.265625 0.5625 C 12.472656 0.5625 8.789062 -1.269531 6.21875 -4.9375 C 3.65625 -8.613281 2.375 -13.90625 2.375 -20.8125 C 2.375 -27.664062 3.65625 -32.914062 6.21875 -36.5625 C 8.789062 -40.21875 12.492188 -42.046875 17.328125 -42.046875 C 22.097656 -42.046875 25.757812 -40.207031 28.3125 -36.53125 C 30.863281 -32.863281 32.140625 -27.601562 32.140625 -20.75 Z M 10.25 -20.75 C 10.25 -16.03125 10.84375 -12.429688 12.03125 -9.953125 C 13.21875 -7.484375 14.960938 -6.25 17.265625 -6.25 C 21.910156 -6.25 24.234375 -11.082031 24.234375 -20.75 C 24.234375 -30.414062 21.929688 -35.25 17.328125 -35.25 C 14.984375 -35.25 13.21875 -34.015625 12.03125 -31.546875 C 10.84375 -29.085938 10.25 -25.488281 10.25 -20.75 Z M 10.25 -20.75 "/></g></g></g><g fill="#000000" fill-opacity="1"><g transform="translate(285.083629, 108.900459)"><g><path d="M 18.4375 0 L 10.5625 -35.25 L 10.25 -35.25 C 10.601562 -32.53125 10.78125 -30.039062 10.78125 -27.78125 L 10.78125 0 L 3.65625 0 L 3.65625 -41.390625 L 15.484375 -41.390625 L 22.5625 -8.859375 L 22.796875 -8.859375 L 29.8125 -41.390625 L 41.8125 -41.390625 L 41.8125 0 L 34.515625 0 L 34.515625 -28.0625 C 34.515625 -30.382812 34.644531 -32.757812 34.90625 -35.1875 L 34.6875 -35.1875 L 26.84375 0 Z M 18.4375 0 "/></g></g></g><g fill="#000000" fill-opacity="1"><g transform="translate(330.557211, 108.900459)"><g><path d="M 18.4375 0 L 10.5625 -35.25 L 10.25 -35.25 C 10.601562 -32.53125 10.78125 -30.039062 10.78125 -27.78125 L 10.78125 0 L 3.65625 0 L 3.65625 -41.390625 L 15.484375 -41.390625 L 22.5625 -8.859375 L 22.796875 -8.859375 L 29.8125 -41.390625 L 41.8125 -41.390625 L 41.8125 0 L 34.515625 0 L 34.515625 -28.0625 C 34.515625 -30.382812 34.644531 -32.757812 34.90625 -35.1875 L 34.6875 -35.1875 L 26.84375 0 Z M 18.4375 0 "/></g></g></g><g fill="#000000" fill-opacity="1"><g transform="translate(376.030793, 108.900459)"><g><path d="M 29.109375 -41.390625 L 29.109375 -14.609375 C 29.109375 -9.679688 27.992188 -5.921875 25.765625 -3.328125 C 23.535156 -0.734375 20.316406 0.5625 16.109375 0.5625 C 11.992188 0.5625 8.859375 -0.722656 6.703125 -3.296875 C 4.554688 -5.867188 3.484375 -9.675781 3.484375 -14.71875 L 3.484375 -41.390625 L 11.125 -41.390625 L 11.125 -14.15625 C 11.125 -8.882812 12.867188 -6.25 16.359375 -6.25 C 17.984375 -6.25 19.238281 -6.921875 20.125 -8.265625 C 21.019531 -9.609375 21.46875 -11.515625 21.46875 -13.984375 L 21.46875 -41.390625 Z M 29.109375 -41.390625 "/></g></g></g><g fill="#000000" fill-opacity="1"><g transform="translate(408.621142, 108.900459)"><g><path d="M 32.640625 0 L 23.25 0 L 10.453125 -29.984375 L 10.078125 -29.984375 C 10.546875 -27.703125 10.78125 -25.25 10.78125 -22.625 L 10.78125 0 L 3.65625 0 L 3.65625 -41.390625 L 13.109375 -41.390625 L 25.796875 -11.71875 L 26.109375 -11.71875 C 25.742188 -13.695312 25.5625 -16.054688 25.5625 -18.796875 L 25.5625 -41.390625 L 32.640625 -41.390625 Z M 32.640625 0 "/></g></g></g><g fill="#000000" fill-opacity="1"><g transform="translate(444.920738, 108.900459)"><g><path d="M 5.046875 0 L 5.046875 -41.390625 L 12.28125 -41.390625 L 12.28125 0 Z M 5.046875 0 "/></g></g></g><g fill="#000000" fill-opacity="1"><g transform="translate(462.306041, 108.900459)"><g><path d="M 17.390625 -35.25 C 15.179688 -35.25 13.4375 -33.953125 12.15625 -31.359375 C 10.882812 -28.773438 10.25 -25.179688 10.25 -20.578125 C 10.25 -10.992188 12.75 -6.203125 17.75 -6.203125 C 19.9375 -6.203125 22.226562 -6.898438 24.625 -8.296875 L 24.625 -1.4375 C 22.613281 -0.101562 20.03125 0.5625 16.875 0.5625 C 12.207031 0.5625 8.625 -1.289062 6.125 -5 C 3.625 -8.707031 2.375 -13.921875 2.375 -20.640625 C 2.375 -27.359375 3.660156 -32.59375 6.234375 -36.34375 C 8.816406 -40.101562 12.398438 -41.984375 16.984375 -41.984375 C 18.492188 -41.984375 19.941406 -41.773438 21.328125 -41.359375 C 22.722656 -40.941406 24.210938 -40.21875 25.796875 -39.1875 L 23.25 -32.921875 C 22.394531 -33.515625 21.484375 -34.050781 20.515625 -34.53125 C 19.554688 -35.007812 18.515625 -35.25 17.390625 -35.25 Z M 17.390625 -35.25 "/></g></g></g><g fill="#000000" fill-opacity="1"><g transform="translate(489.148479, 108.900459)"><g><path d="M 23.25 0 L 20.859375 -10.453125 L 10.078125 -10.453125 L 7.703125 0 L 0 0 L 10.25 -41.5625 L 20.703125 -41.5625 L 30.96875 0 Z M 19.421875 -17.265625 L 17.21875 -26.890625 C 17.082031 -27.484375 16.78125 -28.953125 16.3125 -31.296875 C 15.851562 -33.648438 15.578125 -35.222656 15.484375 -36.015625 C 15.242188 -34.390625 14.929688 -32.597656 14.546875 -30.640625 C 14.171875 -28.691406 13.191406 -24.234375 11.609375 -17.265625 Z M 19.421875 -17.265625 "/></g></g></g><g fill="#000000" fill-opacity="1"><g transform="translate(520.124867, 108.900459)"><g><path d="M 16.359375 0 L 8.6875 0 L 8.6875 -34.625 L 0.765625 -34.625 L 0.765625 -41.390625 L 24.296875 -41.390625 L 24.296875 -34.625 L 16.359375 -34.625 Z M 16.359375 0 "/></g></g></g><g fill="#000000" fill-opacity="1"><g transform="translate(545.183466, 108.900459)"><g><path d="M 5.046875 0 L 5.046875 -41.390625 L 12.28125 -41.390625 L 12.28125 0 Z M 5.046875 0 "/></g></g></g><g fill="#000000" fill-opacity="1"><g transform="translate(562.56877, 108.900459)"><g><path d="M 32.140625 -20.75 C 32.140625 -13.894531 30.851562 -8.628906 28.28125 -4.953125 C 25.71875 -1.273438 22.046875 0.5625 17.265625 0.5625 C 12.472656 0.5625 8.789062 -1.269531 6.21875 -4.9375 C 3.65625 -8.613281 2.375 -13.90625 2.375 -20.8125 C 2.375 -27.664062 3.65625 -32.914062 6.21875 -36.5625 C 8.789062 -40.21875 12.492188 -42.046875 17.328125 -42.046875 C 22.097656 -42.046875 25.757812 -40.207031 28.3125 -36.53125 C 30.863281 -32.863281 32.140625 -27.601562 32.140625 -20.75 Z M 10.25 -20.75 C 10.25 -16.03125 10.84375 -12.429688 12.03125 -9.953125 C 13.21875 -7.484375 14.960938 -6.25 17.265625 -6.25 C 21.910156 -6.25 24.234375 -11.082031 24.234375 -20.75 C 24.234375 -30.414062 21.929688 -35.25 17.328125 -35.25 C 14.984375 -35.25 13.21875 -34.015625 12.03125 -31.546875 C 10.84375 -29.085938 10.25 -25.488281 10.25 -20.75 Z M 10.25 -20.75 "/></g></g></g><g fill="#000000" fill-opacity="1"><g transform="translate(597.084527, 108.900459)"><g><path d="M 32.640625 0 L 23.25 0 L 10.453125 -29.984375 L 10.078125 -29.984375 C 10.546875 -27.703125 10.78125 -25.25 10.78125 -22.625 L 10.78125 0 L 3.65625 0 L 3.65625 -41.390625 L 13.109375 -41.390625 L 25.796875 -11.71875 L 26.109375 -11.71875 C 25.742188 -13.695312 25.5625 -16.054688 25.5625 -18.796875 L 25.5625 -41.390625 L 32.640625 -41.390625 Z M 32.640625 0 "/></g></g></g><g fill="#000000" fill-opacity="1"><g transform="translate(633.384099, 108.900459)"><g/></g></g><g fill="#000000" fill-opacity="1"><g transform="translate(647.711381, 108.900459)"><g><path d="M 16.359375 0 L 8.6875 0 L 8.6875 -34.625 L 0.765625 -34.625 L 0.765625 -41.390625 L 24.296875 -41.390625 L 24.296875 -34.625 L 16.359375 -34.625 Z M 16.359375 0 "/></g></g></g><g fill="#000000" fill-opacity="1"><g transform="translate(672.76998, 108.900459)"><g><path d="M 22.3125 0 L 3.65625 0 L 3.65625 -41.390625 L 22.3125 -41.390625 L 22.3125 -34.734375 L 11.359375 -34.734375 L 11.359375 -24.890625 L 21.515625 -24.890625 L 21.515625 -18.203125 L 11.359375 -18.203125 L 11.359375 -6.734375 L 22.3125 -6.734375 Z M 22.3125 0 "/></g></g></g><g fill="#000000" fill-opacity="1"><g transform="translate(697.460493, 108.900459)"><g><path d="M 17.390625 -35.25 C 15.179688 -35.25 13.4375 -33.953125 12.15625 -31.359375 C 10.882812 -28.773438 10.25 -25.179688 10.25 -20.578125 C 10.25 -10.992188 12.75 -6.203125 17.75 -6.203125 C 19.9375 -6.203125 22.226562 -6.898438 24.625 -8.296875 L 24.625 -1.4375 C 22.613281 -0.101562 20.03125 0.5625 16.875 0.5625 C 12.207031 0.5625 8.625 -1.289062 6.125 -5 C 3.625 -8.707031 2.375 -13.921875 2.375 -20.640625 C 2.375 -27.359375 3.660156 -32.59375 6.234375 -36.34375 C 8.816406 -40.101562 12.398438 -41.984375 16.984375 -41.984375 C 18.492188 -41.984375 19.941406 -41.773438 21.328125 -41.359375 C 22.722656 -40.941406 24.210938 -40.21875 25.796875 -39.1875 L 23.25 -32.921875 C 22.394531 -33.515625 21.484375 -34.050781 20.515625 -34.53125 C 19.554688 -35.007812 18.515625 -35.25 17.390625 -35.25 Z M 17.390625 -35.25 "/></g></g></g><g fill="#000000" fill-opacity="1"><g transform="translate(724.302954, 108.900459)"><g><path d="M 29.21875 0 L 21.515625 0 L 21.515625 -18.140625 L 11.359375 -18.140625 L 11.359375 0 L 3.65625 0 L 3.65625 -41.390625 L 11.359375 -41.390625 L 11.359375 -24.9375 L 21.515625 -24.9375 L 21.515625 -41.390625 L 29.21875 -41.390625 Z M 29.21875 0 "/></g></g></g><g fill="#000000" fill-opacity="1"><g transform="translate(757.176463, 108.900459)"><g><path d="M 32.640625 0 L 23.25 0 L 10.453125 -29.984375 L 10.078125 -29.984375 C 10.546875 -27.703125 10.78125 -25.25 10.78125 -22.625 L 10.78125 0 L 3.65625 0 L 3.65625 -41.390625 L 13.109375 -41.390625 L 25.796875 -11.71875 L 26.109375 -11.71875 C 25.742188 -13.695312 25.5625 -16.054688 25.5625 -18.796875 L 25.5625 -41.390625 L 32.640625 -41.390625 Z M 32.640625 0 "/></g></g></g><g fill="#000000" fill-opacity="1"><g transform="translate(793.476036, 108.900459)"><g><path d="M 32.140625 -20.75 C 32.140625 -13.894531 30.851562 -8.628906 28.28125 -4.953125 C 25.71875 -1.273438 22.046875 0.5625 17.265625 0.5625 C 12.472656 0.5625 8.789062 -1.269531 6.21875 -4.9375 C 3.65625 -8.613281 2.375 -13.90625 2.375 -20.8125 C 2.375 -27.664062 3.65625 -32.914062 6.21875 -36.5625 C 8.789062 -40.21875 12.492188 -42.046875 17.328125 -42.046875 C 22.097656 -42.046875 25.757812 -40.207031 28.3125 -36.53125 C 30.863281 -32.863281 32.140625 -27.601562 32.140625 -20.75 Z M 10.25 -20.75 C 10.25 -16.03125 10.84375 -12.429688 12.03125 -9.953125 C 13.21875 -7.484375 14.960938 -6.25 17.265625 -6.25 C 21.910156 -6.25 24.234375 -11.082031 24.234375 -20.75 C 24.234375 -30.414062 21.929688 -35.25 17.328125 -35.25 C 14.984375 -35.25 13.21875 -34.015625 12.03125 -31.546875 C 10.84375 -29.085938 10.25 -25.488281 10.25 -20.75 Z M 10.25 -20.75 "/></g></g></g><g fill="#000000" fill-opacity="1"><g transform="translate(827.991792, 108.900459)"><g><path d="M 3.65625 0 L 3.65625 -41.390625 L 11.359375 -41.390625 L 11.359375 -6.734375 L 22.03125 -6.734375 L 22.03125 0 Z M 3.65625 0 "/></g></g></g><g fill="#000000" fill-opacity="1"><g transform="translate(851.294907, 108.900459)"><g><path d="M 32.140625 -20.75 C 32.140625 -13.894531 30.851562 -8.628906 28.28125 -4.953125 C 25.71875 -1.273438 22.046875 0.5625 17.265625 0.5625 C 12.472656 0.5625 8.789062 -1.269531 6.21875 -4.9375 C 3.65625 -8.613281 2.375 -13.90625 2.375 -20.8125 C 2.375 -27.664062 3.65625 -32.914062 6.21875 -36.5625 C 8.789062 -40.21875 12.492188 -42.046875 17.328125 -42.046875 C 22.097656 -42.046875 25.757812 -40.207031 28.3125 -36.53125 C 30.863281 -32.863281 32.140625 -27.601562 32.140625 -20.75 Z M 10.25 -20.75 C 10.25 -16.03125 10.84375 -12.429688 12.03125 -9.953125 C 13.21875 -7.484375 14.960938 -6.25 17.265625 -6.25 C 21.910156 -6.25 24.234375 -11.082031 24.234375 -20.75 C 24.234375 -30.414062 21.929688 -35.25 17.328125 -35.25 C 14.984375 -35.25 13.21875 -34.015625 12.03125 -31.546875 C 10.84375 -29.085938 10.25 -25.488281 10.25 -20.75 Z M 10.25 -20.75 "/></g></g></g><g fill="#000000" fill-opacity="1"><g transform="translate(885.810664, 108.900459)"><g><path d="M 16.171875 -22.96875 L 28.828125 -22.96875 L 28.828125 -1.734375 C 25.234375 -0.203125 21.421875 0.5625 17.390625 0.5625 C 12.578125 0.5625 8.867188 -1.265625 6.265625 -4.921875 C 3.671875 -8.585938 2.375 -13.863281 2.375 -20.75 C 2.375 -27.394531 3.859375 -32.59375 6.828125 -36.34375 C 9.804688 -40.101562 13.96875 -41.984375 19.3125 -41.984375 C 22.613281 -41.984375 25.765625 -41.132812 28.765625 -39.4375 L 26.328125 -33.15625 C 23.984375 -34.507812 21.796875 -35.1875 19.765625 -35.1875 C 16.835938 -35.1875 14.519531 -33.878906 12.8125 -31.265625 C 11.101562 -28.648438 10.25 -25.085938 10.25 -20.578125 C 10.25 -15.941406 10.863281 -12.382812 12.09375 -9.90625 C 13.332031 -7.4375 15.132812 -6.203125 17.5 -6.203125 C 18.738281 -6.203125 20.003906 -6.363281 21.296875 -6.6875 L 21.296875 -16.171875 L 16.171875 -16.171875 Z M 16.171875 -22.96875 "/></g></g></g><g clip-path="url(#id3)"><g fill="#000000" fill-opacity="1"><g transform="translate(917.29673, 108.900459)"><g><path d="M 13.625 -25.0625 L 19.140625 -41.390625 L 27.203125 -41.390625 L 17.390625 -16.59375 L 17.390625 0 L 9.796875 0 L 9.796875 -16.28125 L 0 -41.390625 L 8.125 -41.390625 Z M 13.625 -25.0625 "/></g></g></g></g><g fill="#000000" fill-opacity="1"><g transform="translate(223.725435, 160.643885)"><g><path d="M 23.25 0 L 20.859375 -10.453125 L 10.078125 -10.453125 L 7.703125 0 L 0 0 L 10.25 -41.5625 L 20.703125 -41.5625 L 30.96875 0 Z M 19.421875 -17.265625 L 17.21875 -26.890625 C 17.082031 -27.484375 16.78125 -28.953125 16.3125 -31.296875 C 15.851562 -33.648438 15.578125 -35.222656 15.484375 -36.015625 C 15.242188 -34.390625 14.929688 -32.597656 14.546875 -30.640625 C 14.171875 -28.691406 13.191406 -24.234375 11.609375 -17.265625 Z M 19.421875 -17.265625 "/></g></g></g><g fill="#000000" fill-opacity="1"><g transform="translate(254.701835, 160.643885)"><g><path d="M 17.390625 -35.25 C 15.179688 -35.25 13.4375 -33.953125 12.15625 -31.359375 C 10.882812 -28.773438 10.25 -25.179688 10.25 -20.578125 C 10.25 -10.992188 12.75 -6.203125 17.75 -6.203125 C 19.9375 -6.203125 22.226562 -6.898438 24.625 -8.296875 L 24.625 -1.4375 C 22.613281 -0.101562 20.03125 0.5625 16.875 0.5625 C 12.207031 0.5625 8.625 -1.289062 6.125 -5 C 3.625 -8.707031 2.375 -13.921875 2.375 -20.640625 C 2.375 -27.359375 3.660156 -32.59375 6.234375 -36.34375 C 8.816406 -40.101562 12.398438 -41.984375 16.984375 -41.984375 C 18.492188 -41.984375 19.941406 -41.773438 21.328125 -41.359375 C 22.722656 -40.941406 24.210938 -40.21875 25.796875 -39.1875 L 23.25 -32.921875 C 22.394531 -33.515625 21.484375 -34.050781 20.515625 -34.53125 C 19.554688 -35.007812 18.515625 -35.25 17.390625 -35.25 Z M 17.390625 -35.25 "/></g></g></g><g fill="#000000" fill-opacity="1"><g transform="translate(281.544273, 160.643885)"><g><path d="M 23.25 0 L 20.859375 -10.453125 L 10.078125 -10.453125 L 7.703125 0 L 0 0 L 10.25 -41.5625 L 20.703125 -41.5625 L 30.96875 0 Z M 19.421875 -17.265625 L 17.21875 -26.890625 C 17.082031 -27.484375 16.78125 -28.953125 16.3125 -31.296875 C 15.851562 -33.648438 15.578125 -35.222656 15.484375 -36.015625 C 15.242188 -34.390625 14.929688 -32.597656 14.546875 -30.640625 C 14.171875 -28.691406 13.191406 -24.234375 11.609375 -17.265625 Z M 19.421875 -17.265625 "/></g></g></g><g fill="#000000" fill-opacity="1"><g transform="translate(312.520673, 160.643885)"><g><path d="M 29.984375 -21.09375 C 29.984375 -14.257812 28.585938 -9.035156 25.796875 -5.421875 C 23.015625 -1.804688 19.007812 0 13.78125 0 L 3.65625 0 L 3.65625 -41.390625 L 14.71875 -41.390625 C 19.53125 -41.390625 23.273438 -39.609375 25.953125 -36.046875 C 28.640625 -32.492188 29.984375 -27.507812 29.984375 -21.09375 Z M 22.078125 -20.859375 C 22.078125 -30.109375 19.53125 -34.734375 14.4375 -34.734375 L 11.359375 -34.734375 L 11.359375 -6.734375 L 13.84375 -6.734375 C 16.65625 -6.734375 18.726562 -7.90625 20.0625 -10.25 C 21.40625 -12.601562 22.078125 -16.140625 22.078125 -20.859375 Z M 22.078125 -20.859375 "/></g></g></g><g fill="#000000" fill-opacity="1"><g transform="translate(344.884505, 160.643885)"><g><path d="M 22.3125 0 L 3.65625 0 L 3.65625 -41.390625 L 22.3125 -41.390625 L 22.3125 -34.734375 L 11.359375 -34.734375 L 11.359375 -24.890625 L 21.515625 -24.890625 L 21.515625 -18.203125 L 11.359375 -18.203125 L 11.359375 -6.734375 L 22.3125 -6.734375 Z M 22.3125 0 "/></g></g></g><g fill="#000000" fill-opacity="1"><g transform="translate(369.575017, 160.643885)"><g><path d="M 18.4375 0 L 10.5625 -35.25 L 10.25 -35.25 C 10.601562 -32.53125 10.78125 -30.039062 10.78125 -27.78125 L 10.78125 0 L 3.65625 0 L 3.65625 -41.390625 L 15.484375 -41.390625 L 22.5625 -8.859375 L 22.796875 -8.859375 L 29.8125 -41.390625 L 41.8125 -41.390625 L 41.8125 0 L 34.515625 0 L 34.515625 -28.0625 C 34.515625 -30.382812 34.644531 -32.757812 34.90625 -35.1875 L 34.6875 -35.1875 L 26.84375 0 Z M 18.4375 0 "/></g></g></g><g fill="#000000" fill-opacity="1"><g transform="translate(415.048599, 160.643885)"><g><path d="M 13.625 -25.0625 L 19.140625 -41.390625 L 27.203125 -41.390625 L 17.390625 -16.59375 L 17.390625 0 L 9.796875 0 L 9.796875 -16.28125 L 0 -41.390625 L 8.125 -41.390625 Z M 13.625 -25.0625 "/></g></g></g><g fill="#000000" fill-opacity="1"><g transform="translate(442.259135, 160.643885)"><g/></g></g><g fill="#000000" fill-opacity="1"><g transform="translate(456.586417, 160.643885)"><g><path d="M 32.140625 -20.75 C 32.140625 -13.894531 30.851562 -8.628906 28.28125 -4.953125 C 25.71875 -1.273438 22.046875 0.5625 17.265625 0.5625 C 12.472656 0.5625 8.789062 -1.269531 6.21875 -4.9375 C 3.65625 -8.613281 2.375 -13.90625 2.375 -20.8125 C 2.375 -27.664062 3.65625 -32.914062 6.21875 -36.5625 C 8.789062 -40.21875 12.492188 -42.046875 17.328125 -42.046875 C 22.097656 -42.046875 25.757812 -40.207031 28.3125 -36.53125 C 30.863281 -32.863281 32.140625 -27.601562 32.140625 -20.75 Z M 10.25 -20.75 C 10.25 -16.03125 10.84375 -12.429688 12.03125 -9.953125 C 13.21875 -7.484375 14.960938 -6.25 17.265625 -6.25 C 21.910156 -6.25 24.234375 -11.082031 24.234375 -20.75 C 24.234375 -30.414062 21.929688 -35.25 17.328125 -35.25 C 14.984375 -35.25 13.21875 -34.015625 12.03125 -31.546875 C 10.84375 -29.085938 10.25 -25.488281 10.25 -20.75 Z M 10.25 -20.75 "/></g></g></g><g fill="#000000" fill-opacity="1"><g transform="translate(491.102173, 160.643885)"><g><path d="M 11.296875 0 L 3.65625 0 L 3.65625 -41.390625 L 22.203125 -41.390625 L 22.203125 -34.734375 L 11.296875 -34.734375 L 11.296875 -23.25 L 21.46875 -23.25 L 21.46875 -16.59375 L 11.296875 -16.59375 Z M 11.296875 0 "/></g></g></g><g fill="#000000" fill-opacity="1"><g transform="translate(514.829993, 160.643885)"><g/></g></g><g fill="#000000" fill-opacity="1"><g transform="translate(529.157275, 160.643885)"><g><path d="M 29.4375 0 L 21.234375 0 L 14.4375 -17.703125 L 11.359375 -14.609375 L 11.359375 0 L 3.65625 0 L 3.65625 -41.390625 L 11.359375 -41.390625 L 11.359375 -20.859375 L 14.046875 -27.0625 L 21.09375 -41.390625 L 29.328125 -41.390625 L 19.765625 -23.46875 Z M 29.4375 0 "/></g></g></g><g fill="#000000" fill-opacity="1"><g transform="translate(558.604675, 160.643885)"><g><path d="M 22.3125 0 L 3.65625 0 L 3.65625 -41.390625 L 22.3125 -41.390625 L 22.3125 -34.734375 L 11.359375 -34.734375 L 11.359375 -24.890625 L 21.515625 -24.890625 L 21.515625 -18.203125 L 11.359375 -18.203125 L 11.359375 -6.734375 L 22.3125 -6.734375 Z M 22.3125 0 "/></g></g></g><g fill="#000000" fill-opacity="1"><g transform="translate(583.295188, 160.643885)"><g><path d="M 11.359375 -16.109375 L 11.359375 0 L 3.65625 0 L 3.65625 -41.390625 L 13.734375 -41.390625 C 17.992188 -41.390625 21.140625 -40.378906 23.171875 -38.359375 C 25.203125 -36.335938 26.21875 -33.253906 26.21875 -29.109375 C 26.21875 -23.878906 24.453125 -20.222656 20.921875 -18.140625 L 28.875 0 L 20.640625 0 L 14.09375 -16.109375 Z M 11.359375 -22.734375 L 13.328125 -22.734375 C 15.140625 -22.734375 16.441406 -23.25 17.234375 -24.28125 C 18.035156 -25.3125 18.4375 -26.84375 18.4375 -28.875 C 18.4375 -30.988281 18.015625 -32.492188 17.171875 -33.390625 C 16.328125 -34.285156 15.03125 -34.734375 13.28125 -34.734375 L 11.359375 -34.734375 Z M 11.359375 -22.734375 "/></g></g></g><g fill="#000000" fill-opacity="1"><g transform="translate(612.289551, 160.643885)"><g><path d="M 23.25 0 L 20.859375 -10.453125 L 10.078125 -10.453125 L 7.703125 0 L 0 0 L 10.25 -41.5625 L 20.703125 -41.5625 L 30.96875 0 Z M 19.421875 -17.265625 L 17.21875 -26.890625 C 17.082031 -27.484375 16.78125 -28.953125 16.3125 -31.296875 C 15.851562 -33.648438 15.578125 -35.222656 15.484375 -36.015625 C 15.242188 -34.390625 14.929688 -32.597656 14.546875 -30.640625 C 14.171875 -28.691406 13.191406 -24.234375 11.609375 -17.265625 Z M 19.421875 -17.265625 "/></g></g></g><g fill="#000000" fill-opacity="1"><g transform="translate(643.265963, 160.643885)"><g><path d="M 3.65625 0 L 3.65625 -41.390625 L 11.359375 -41.390625 L 11.359375 -6.734375 L 22.03125 -6.734375 L 22.03125 0 Z M 3.65625 0 "/></g></g></g><g fill="#000000" fill-opacity="1"><g transform="translate(666.569078, 160.643885)"><g><path d="M 23.25 0 L 20.859375 -10.453125 L 10.078125 -10.453125 L 7.703125 0 L 0 0 L 10.25 -41.5625 L 20.703125 -41.5625 L 30.96875 0 Z M 19.421875 -17.265625 L 17.21875 -26.890625 C 17.082031 -27.484375 16.78125 -28.953125 16.3125 -31.296875 C 15.851562 -33.648438 15.578125 -35.222656 15.484375 -36.015625 C 15.242188 -34.390625 14.929688 -32.597656 14.546875 -30.640625 C 14.171875 -28.691406 13.191406 -24.234375 11.609375 -17.265625 Z M 19.421875 -17.265625 "/></g></g></g><g fill="#0099cc" fill-opacity="1"><g transform="translate(223.725435, 210.887502)"><g><path d="M 5.03125 0 L 5.03125 -39.96875 L 13.5 -39.96875 L 13.5 0 Z M 5.03125 0 "/></g></g></g><g fill="#0099cc" fill-opacity="1"><g transform="translate(242.259557, 210.887502)"><g><path d="M 22 -33.484375 C 18.8125 -33.484375 16.34375 -32.285156 14.59375 -29.890625 C 12.84375 -27.492188 11.96875 -24.15625 11.96875 -19.875 C 11.96875 -10.957031 15.3125 -6.5 22 -6.5 C 24.8125 -6.5 28.210938 -7.203125 32.203125 -8.609375 L 32.203125 -1.5 C 28.921875 -0.132812 25.257812 0.546875 21.21875 0.546875 C 15.40625 0.546875 10.957031 -1.210938 7.875 -4.734375 C 4.789062 -8.265625 3.25 -13.328125 3.25 -19.921875 C 3.25 -24.078125 4.003906 -27.71875 5.515625 -30.84375 C 7.035156 -33.96875 9.210938 -36.363281 12.046875 -38.03125 C 14.878906 -39.707031 18.195312 -40.546875 22 -40.546875 C 25.882812 -40.546875 29.785156 -39.601562 33.703125 -37.71875 L 30.96875 -30.828125 C 29.476562 -31.546875 27.972656 -32.164062 26.453125 -32.6875 C 24.941406 -33.21875 23.457031 -33.484375 22 -33.484375 Z M 22 -33.484375 "/></g></g></g><g fill="#0099cc" fill-opacity="1"><g transform="translate(277.93364, 210.887502)"><g><path d="M 20.453125 0 L 11.96875 0 L 11.96875 -32.90625 L 1.125 -32.90625 L 1.125 -39.96875 L 31.296875 -39.96875 L 31.296875 -32.90625 L 20.453125 -32.90625 Z M 20.453125 0 "/></g></g></g><g fill="#0099cc" fill-opacity="1"><g transform="translate(310.354685, 210.887502)"><g><path d="M 29.5 0 L 26.59375 -9.515625 L 12.03125 -9.515625 L 9.125 0 L 0 0 L 14.109375 -40.125 L 24.46875 -40.125 L 38.625 0 Z M 24.578125 -16.625 C 21.898438 -25.238281 20.390625 -30.109375 20.046875 -31.234375 C 19.710938 -32.367188 19.472656 -33.265625 19.328125 -33.921875 C 18.722656 -31.585938 17 -25.820312 14.15625 -16.625 Z M 24.578125 -16.625 "/></g></g></g><g fill="#0099cc" fill-opacity="1"><g transform="translate(348.981106, 210.887502)"><g><path d="M 37.171875 0 L 27.5625 0 L 17.078125 -16.84375 L 13.5 -14.265625 L 13.5 0 L 5.03125 0 L 5.03125 -39.96875 L 13.5 -39.96875 L 13.5 -21.671875 L 16.84375 -26.375 L 27.671875 -39.96875 L 37.0625 -39.96875 L 23.125 -22.28125 Z M 37.171875 0 "/></g></g></g></svg>